<svg width="210" height="21" viewBox="0 0 210 21" fill="none" xmlns="http://www.w3.org/2000/svg">
<path fill-rule="evenodd" clip-rule="evenodd" d="M0 10.4042C0 4.88141 4.47712 0.404297 9.99992 0.404297H48.1287C52.6088 0.404297 56.4008 3.35047 57.673 7.41108C57.8795 8.07036 58.4614 8.56755 59.1523 8.56755C59.8432 8.56755 60.4252 8.07037 60.6317 7.4111C61.9039 3.35057 65.6959 0.40446 70.1759 0.40446H200C205.523 0.40446 210 4.88158 210 10.4044C210 15.9272 205.523 20.4043 200.001 20.4043H70.1759C65.6958 20.4043 61.9038 17.4581 60.6316 13.3975C60.4251 12.7382 59.8432 12.241 59.1523 12.241C58.4614 12.241 57.8795 12.7382 57.6729 13.3974C56.4008 17.458 52.6088 20.4041 48.1287 20.4041H9.99991C4.4771 20.4041 0 15.927 0 10.4042ZM119.503 14.9389C118.8 14.9389 118.25 14.8404 117.855 14.6409C117.458 14.4426 117.182 14.1458 117.024 13.748C116.866 13.3515 116.786 12.8613 116.786 12.2751V8.95851C116.786 8.00652 116.999 7.30453 117.425 6.85379C117.85 6.40304 118.543 6.17643 119.504 6.17643H123.971C124.654 6.17643 125.176 6.21338 125.538 6.2885C125.898 6.3624 126.08 6.43999 126.08 6.51881L125.783 7.75282C125.615 7.72326 125.118 7.69124 124.291 7.65553C123.465 7.62104 122.266 7.6038 120.692 7.6038H119.935C119.143 7.6038 118.748 7.95603 118.748 8.66047V12.4537C118.748 12.7911 118.834 13.051 119.007 13.2345C119.18 13.418 119.49 13.5091 119.935 13.5091H120.544C122.187 13.5091 123.461 13.4919 124.367 13.4574C125.272 13.4229 125.834 13.3859 126.051 13.3453L126.66 14.3268C126.66 14.3761 126.579 14.4512 126.416 14.5498C126.253 14.6495 125.953 14.7382 125.518 14.817C125.082 14.8958 124.454 14.9365 123.633 14.9365H119.506L119.503 14.9389ZM86.4004 14.9387V7.38315L86.2522 6.17869H92.8282C93.4618 6.17869 93.9583 6.26366 94.3202 6.43116C94.6809 6.59988 94.9489 6.82033 95.1219 7.0925C95.2948 7.3659 95.4059 7.65532 95.4554 7.96321C95.5048 8.27109 95.5295 8.56297 95.5295 8.8413V9.7194C95.5295 9.94724 95.4949 10.2034 95.4257 10.4854C95.3565 10.7674 95.2281 11.0409 95.0403 11.3032C94.8526 11.5655 94.5796 11.7847 94.2239 11.9571C93.8682 12.1308 93.4025 12.217 92.8282 12.217H91.3139C90.6901 12.217 90.1083 12.2022 89.5698 12.1726C89.03 12.1431 88.6274 12.1185 88.3606 12.0988V14.9399H86.4016L86.4004 14.9387ZM88.3593 10.7884H92.3971C92.843 10.7884 93.1493 10.6788 93.3173 10.4608C93.4853 10.2428 93.5693 9.98049 93.5693 9.6726V8.73539C93.5693 8.41765 93.4853 8.1504 93.3173 7.93242C93.1493 7.71443 92.8467 7.60482 92.4119 7.60482H88.3593V10.7884ZM72.238 14.9389C71.5649 14.9389 71.0708 14.9093 70.7534 14.8502C70.4372 14.7911 70.2778 14.7209 70.2778 14.6421L70.8719 13.3477C71.0992 13.3871 71.6662 13.4241 72.5715 13.4598C73.4769 13.4943 74.7219 13.5115 76.3054 13.5115H76.587C77.0119 13.5115 77.3145 13.4352 77.4924 13.2812C77.6703 13.1273 77.7592 12.8674 77.7592 12.5004V12.2024C77.7592 11.8551 77.6876 11.6075 77.5443 11.4585C77.401 11.3095 77.0811 11.2356 76.587 11.2356H73.1434C72.1442 11.2356 71.4166 11.0497 70.9609 10.6777C70.5051 10.3058 70.2778 9.69864 70.2778 8.85503V8.61734C70.2778 8.18137 70.3594 7.77988 70.5224 7.41288C70.6854 7.04588 70.9646 6.75154 71.3611 6.5274C71.7563 6.30448 72.301 6.19241 72.9939 6.19241H77.0317C77.7049 6.19241 78.2483 6.2269 78.6646 6.2971C79.0808 6.36606 79.2883 6.44119 79.2883 6.52001L78.9919 7.77003C78.735 7.74047 78.1507 7.70845 77.2404 7.67274C76.3301 7.63826 75.1073 7.62101 73.5732 7.62101L73.4102 7.60623C72.9544 7.60623 72.6481 7.6986 72.49 7.88087C72.3319 8.06437 72.2467 8.29467 72.238 8.573V8.82547C72.238 9.15306 72.3294 9.39814 72.5122 9.56194C72.695 9.72573 73.0001 9.80702 73.425 9.80702H76.7204C77.3541 9.80702 77.8938 9.87106 78.3385 10.0004C78.7844 10.1297 79.1253 10.3649 79.3624 10.7073C79.5996 11.0497 79.7182 11.5534 79.7182 12.2172V12.4549C79.7182 13.1987 79.528 13.7985 79.1463 14.2542C78.7646 14.7098 78.105 14.9389 77.1651 14.9389H72.238ZM104.331 6.19246L99.9823 14.9389H102.149L103.113 13.0497H108.428L109.304 14.9389H111.59L107.256 6.19246H104.331ZM107.88 11.5928H103.651L105.699 7.53239H105.847L107.88 11.5928ZM132.596 6.19246V14.9389H140.701C141.354 14.9389 141.815 14.9217 142.082 14.8872C142.348 14.8515 142.482 14.8146 142.482 14.7751L141.888 13.5103H134.555V11.1458H140.107V9.67282H134.555V7.61983H141.828V6.19246H132.596ZM151.403 14.9387L151.388 7.60609H147.528V6.17872H157.237V7.60609H153.362V14.9387H151.403ZM163.174 6.19246V14.9389H165.133V6.19246H163.174ZM172.111 14.939V7.38346L171.962 6.19378H174.219L177.574 12.1434L181.047 6.19378H183.05V14.9403H181.091V9.39212H180.928L180.349 10.6865L178.479 14.0486H176.683L174.813 10.6865L174.219 9.39212H174.071V14.9403H172.112L172.111 14.939ZM189.88 6.19246V14.9389H197.985C198.638 14.9389 199.099 14.9217 199.366 14.8872C199.633 14.8515 199.766 14.8146 199.766 14.7751L199.172 13.5103H191.839V11.1458H197.391V9.67282H191.839V7.61983H199.113V6.19246H189.88ZM13.0916 8.0541V10.1691V10.1703L10.2633 11.3089L13.0916 12.4533V14.5706L7.57389 12.3977H7.5625V10.2282H7.57389L13.0916 8.0541ZM45.2369 14.4582V12.3443L48.0629 11.2068L45.2369 10.0692V7.9542L50.7466 10.126H50.7603V12.2978H50.7466L45.2369 14.4582ZM42.8708 4.96501L39.6304 15.9806H41.5546L44.7951 4.96501H42.8708ZM22.0012 9.99319C22.0354 9.13152 21.7473 8.29141 21.1996 7.65452H21.2008C20.9298 7.35367 20.6007 7.11753 20.2364 6.962C19.872 6.80646 19.4815 6.73608 19.0887 6.75311C18.6674 6.73381 18.2472 6.80646 17.8533 6.9654C17.4593 7.12434 17.0995 7.36729 16.7978 7.67836V6.98243H14.8735V14.6853H16.7978V11.2738C16.7978 9.50389 17.4001 8.6195 18.6047 8.6195C18.8063 8.61042 19.0078 8.65016 19.1934 8.7353C19.3779 8.82045 19.543 8.94987 19.675 9.11222C19.9563 9.48345 20.0997 9.95005 20.077 10.4246V14.6853H22.0012V9.99319ZM24.4506 3.77879V14.7944H26.3749V3.77879H24.4506ZM35.6416 14.3902H37.2459L39.9456 6.67375H37.8892L36.3738 11.3034L34.8127 6.67375H33.312L31.751 11.2887L30.2355 6.67375H28.1792L30.8766 14.3902H32.4797L34.0681 9.85253L35.6416 14.3902Z" fill="url(#paint0_linear_206_329)"/>
<defs>
<linearGradient id="paint0_linear_206_329" x1="3.47954" y1="-6.24831" x2="236.326" y2="-6.24831" gradientUnits="userSpaceOnUse">
<stop offset="0.251308" stop-color="#996DFF"/>
<stop offset="0.623787" stop-color="#FF876E"/>
<stop offset="1" stop-color="#FFD072"/>
</linearGradient>
</defs>
</svg>
