<svg width="8" height="1108" viewBox="0 0 8 1108" fill="none" xmlns="http://www.w3.org/2000/svg">
<rect width="8" height="1" transform="matrix(-1 0 0 1 8 0)" fill="white" fill-opacity="0.1"/>
<rect width="8" height="1" transform="matrix(-1 0 0 1 8 9)" fill="white" fill-opacity="0.1"/>
<rect width="8" height="1" transform="matrix(-1 0 0 1 8 18)" fill="white" fill-opacity="0.1"/>
<rect width="8" height="1" transform="matrix(-1 0 0 1 8 27)" fill="white" fill-opacity="0.1"/>
<rect width="8" height="1" transform="matrix(-1 0 0 1 8 36)" fill="white" fill-opacity="0.1"/>
<rect width="8" height="1" transform="matrix(-1 0 0 1 8 45)" fill="white" fill-opacity="0.1"/>
<rect width="8" height="1" transform="matrix(-1 0 0 1 8 54)" fill="white" fill-opacity="0.1"/>
<rect width="8" height="1" transform="matrix(-1 0 0 1 8 63)" fill="white" fill-opacity="0.1"/>
<rect width="8" height="1" transform="matrix(-1 0 0 1 8 72)" fill="white" fill-opacity="0.1"/>
<rect width="8" height="1" transform="matrix(-1 0 0 1 8 81)" fill="white" fill-opacity="0.1"/>
<rect width="8" height="1" transform="matrix(-1 0 0 1 8 90)" fill="white" fill-opacity="0.1"/>
<rect width="8" height="1" transform="matrix(-1 0 0 1 8 99)" fill="white" fill-opacity="0.1"/>
<rect width="8" height="1" transform="matrix(-1 0 0 1 8 108)" fill="white" fill-opacity="0.1"/>
<rect width="8" height="1" transform="matrix(-1 0 0 1 8 117)" fill="white" fill-opacity="0.1"/>
<rect width="8" height="1" transform="matrix(-1 0 0 1 8 126)" fill="white" fill-opacity="0.1"/>
<rect width="8" height="1" transform="matrix(-1 0 0 1 8 135)" fill="white" fill-opacity="0.1"/>
<rect width="8" height="1" transform="matrix(-1 0 0 1 8 144)" fill="white" fill-opacity="0.1"/>
<rect width="8" height="1" transform="matrix(-1 0 0 1 8 153)" fill="white" fill-opacity="0.1"/>
<rect width="8" height="1" transform="matrix(-1 0 0 1 8 162)" fill="white" fill-opacity="0.1"/>
<rect width="8" height="1" transform="matrix(-1 0 0 1 8 171)" fill="white" fill-opacity="0.1"/>
<rect width="8" height="1" transform="matrix(-1 0 0 1 8 180)" fill="white" fill-opacity="0.1"/>
<rect width="8" height="1" transform="matrix(-1 0 0 1 8 189)" fill="white" fill-opacity="0.1"/>
<rect width="8" height="1" transform="matrix(-1 0 0 1 8 198)" fill="white" fill-opacity="0.1"/>
<rect width="8" height="1" transform="matrix(-1 0 0 1 8 207)" fill="white" fill-opacity="0.1"/>
<rect width="8" height="1" transform="matrix(-1 0 0 1 8 216)" fill="white" fill-opacity="0.1"/>
<rect width="8" height="1" transform="matrix(-1 0 0 1 8 225)" fill="white" fill-opacity="0.1"/>
<rect width="8" height="1" transform="matrix(-1 0 0 1 8 234)" fill="white" fill-opacity="0.1"/>
<rect width="8" height="1" transform="matrix(-1 0 0 1 8 243)" fill="white" fill-opacity="0.1"/>
<rect width="8" height="1" transform="matrix(-1 0 0 1 8 252)" fill="white" fill-opacity="0.1"/>
<rect width="8" height="1" transform="matrix(-1 0 0 1 8 261)" fill="white" fill-opacity="0.1"/>
<rect width="8" height="1" transform="matrix(-1 0 0 1 8 270)" fill="white" fill-opacity="0.1"/>
<rect width="8" height="1" transform="matrix(-1 0 0 1 8 279)" fill="white" fill-opacity="0.1"/>
<rect width="8" height="1" transform="matrix(-1 0 0 1 8 288)" fill="white" fill-opacity="0.1"/>
<rect width="8" height="1" transform="matrix(-1 0 0 1 8 297)" fill="white" fill-opacity="0.1"/>
<rect width="8" height="1" transform="matrix(-1 0 0 1 8 306)" fill="white" fill-opacity="0.1"/>
<rect width="8" height="1" transform="matrix(-1 0 0 1 8 315)" fill="white" fill-opacity="0.1"/>
<rect width="8" height="1" transform="matrix(-1 0 0 1 8 324)" fill="white" fill-opacity="0.1"/>
<rect width="8" height="1" transform="matrix(-1 0 0 1 8 333)" fill="white" fill-opacity="0.1"/>
<rect width="8" height="1" transform="matrix(-1 0 0 1 8 342)" fill="white" fill-opacity="0.1"/>
<rect width="8" height="1" transform="matrix(-1 0 0 1 8 351)" fill="white" fill-opacity="0.1"/>
<rect width="8" height="1" transform="matrix(-1 0 0 1 8 360)" fill="white" fill-opacity="0.1"/>
<rect width="8" height="1" transform="matrix(-1 0 0 1 8 369)" fill="white" fill-opacity="0.1"/>
<rect width="8" height="1" transform="matrix(-1 0 0 1 8 378)" fill="white" fill-opacity="0.1"/>
<rect width="8" height="1" transform="matrix(-1 0 0 1 8 387)" fill="white" fill-opacity="0.1"/>
<rect width="8" height="1" transform="matrix(-1 0 0 1 8 396)" fill="white" fill-opacity="0.1"/>
<rect width="8" height="1" transform="matrix(-1 0 0 1 8 405)" fill="white" fill-opacity="0.1"/>
<rect width="8" height="1" transform="matrix(-1 0 0 1 8 414)" fill="white" fill-opacity="0.1"/>
<rect width="8" height="1" transform="matrix(-1 0 0 1 8 423)" fill="white" fill-opacity="0.1"/>
<rect width="8" height="1" transform="matrix(-1 0 0 1 8 432)" fill="white" fill-opacity="0.1"/>
<rect width="8" height="1" transform="matrix(-1 0 0 1 8 441)" fill="white" fill-opacity="0.1"/>
<rect width="8" height="1" transform="matrix(-1 0 0 1 8 450)" fill="white" fill-opacity="0.1"/>
<rect width="8" height="1" transform="matrix(-1 0 0 1 8 459)" fill="white" fill-opacity="0.1"/>
<rect width="8" height="1" transform="matrix(-1 0 0 1 8 468)" fill="white" fill-opacity="0.1"/>
<rect width="8" height="1" transform="matrix(-1 0 0 1 8 477)" fill="white" fill-opacity="0.1"/>
<rect width="8" height="1" transform="matrix(-1 0 0 1 8 486)" fill="white" fill-opacity="0.1"/>
<rect width="8" height="1" transform="matrix(-1 0 0 1 8 495)" fill="white" fill-opacity="0.1"/>
<rect width="8" height="1" transform="matrix(-1 0 0 1 8 504)" fill="white" fill-opacity="0.1"/>
<rect width="8" height="1" transform="matrix(-1 0 0 1 8 513)" fill="white" fill-opacity="0.1"/>
<rect width="8" height="1" transform="matrix(-1 0 0 1 8 522)" fill="white" fill-opacity="0.1"/>
<rect width="8" height="1" transform="matrix(-1 0 0 1 8 531)" fill="white" fill-opacity="0.1"/>
<rect width="8" height="1" transform="matrix(-1 0 0 1 8 540)" fill="white" fill-opacity="0.1"/>
<rect width="8" height="1" transform="matrix(-1 0 0 1 8 549)" fill="white" fill-opacity="0.1"/>
<rect width="8" height="1" transform="matrix(-1 0 0 1 8 558)" fill="white" fill-opacity="0.1"/>
<rect width="8" height="1" transform="matrix(-1 0 0 1 8 567)" fill="white" fill-opacity="0.1"/>
<rect width="8" height="1" transform="matrix(-1 0 0 1 8 576)" fill="white" fill-opacity="0.1"/>
<rect width="8" height="1" transform="matrix(-1 0 0 1 8 585)" fill="white" fill-opacity="0.1"/>
<rect width="8" height="1" transform="matrix(-1 0 0 1 8 594)" fill="white" fill-opacity="0.1"/>
<rect width="8" height="1" transform="matrix(-1 0 0 1 8 603)" fill="white" fill-opacity="0.1"/>
<rect width="8" height="1" transform="matrix(-1 0 0 1 8 612)" fill="white" fill-opacity="0.1"/>
<rect width="8" height="1" transform="matrix(-1 0 0 1 8 621)" fill="white" fill-opacity="0.1"/>
<rect width="8" height="1" transform="matrix(-1 0 0 1 8 630)" fill="white" fill-opacity="0.1"/>
<rect width="8" height="1" transform="matrix(-1 0 0 1 8 639)" fill="white" fill-opacity="0.1"/>
<rect width="8" height="1" transform="matrix(-1 0 0 1 8 648)" fill="white" fill-opacity="0.1"/>
<rect width="8" height="1" transform="matrix(-1 0 0 1 8 657)" fill="white" fill-opacity="0.1"/>
<rect width="8" height="1" transform="matrix(-1 0 0 1 8 666)" fill="white" fill-opacity="0.1"/>
<rect width="8" height="1" transform="matrix(-1 0 0 1 8 675)" fill="white" fill-opacity="0.1"/>
<rect width="8" height="1" transform="matrix(-1 0 0 1 8 684)" fill="white" fill-opacity="0.1"/>
<rect width="8" height="1" transform="matrix(-1 0 0 1 8 693)" fill="white" fill-opacity="0.1"/>
<rect width="8" height="1" transform="matrix(-1 0 0 1 8 702)" fill="white" fill-opacity="0.1"/>
<rect width="8" height="1" transform="matrix(-1 0 0 1 8 711)" fill="white" fill-opacity="0.1"/>
<rect width="8" height="1" transform="matrix(-1 0 0 1 8 720)" fill="white" fill-opacity="0.1"/>
<rect width="8" height="1" transform="matrix(-1 0 0 1 8 729)" fill="white" fill-opacity="0.1"/>
<rect width="8" height="1" transform="matrix(-1 0 0 1 8 738)" fill="white" fill-opacity="0.1"/>
<rect width="8" height="1" transform="matrix(-1 0 0 1 8 747)" fill="white" fill-opacity="0.1"/>
<rect width="8" height="1" transform="matrix(-1 0 0 1 8 756)" fill="white" fill-opacity="0.1"/>
<rect width="8" height="1" transform="matrix(-1 0 0 1 8 765)" fill="white" fill-opacity="0.1"/>
<rect width="8" height="1" transform="matrix(-1 0 0 1 8 774)" fill="white" fill-opacity="0.1"/>
<rect width="8" height="1" transform="matrix(-1 0 0 1 8 783)" fill="white" fill-opacity="0.1"/>
<rect width="8" height="1" transform="matrix(-1 0 0 1 8 792)" fill="white" fill-opacity="0.1"/>
<rect width="8" height="1" transform="matrix(-1 0 0 1 8 801)" fill="white" fill-opacity="0.1"/>
<rect width="8" height="1" transform="matrix(-1 0 0 1 8 810)" fill="white" fill-opacity="0.1"/>
<rect width="8" height="1" transform="matrix(-1 0 0 1 8 819)" fill="white" fill-opacity="0.1"/>
<rect width="8" height="1" transform="matrix(-1 0 0 1 8 828)" fill="white" fill-opacity="0.1"/>
<rect width="8" height="1" transform="matrix(-1 0 0 1 8 837)" fill="white" fill-opacity="0.1"/>
<rect width="8" height="1" transform="matrix(-1 0 0 1 8 846)" fill="white" fill-opacity="0.1"/>
<rect width="8" height="1" transform="matrix(-1 0 0 1 8 855)" fill="white" fill-opacity="0.1"/>
<rect width="8" height="1" transform="matrix(-1 0 0 1 8 864)" fill="white" fill-opacity="0.1"/>
<rect width="8" height="1" transform="matrix(-1 0 0 1 8 873)" fill="white" fill-opacity="0.1"/>
<rect width="8" height="1" transform="matrix(-1 0 0 1 8 882)" fill="white" fill-opacity="0.1"/>
<rect width="8" height="1" transform="matrix(-1 0 0 1 8 891)" fill="white" fill-opacity="0.1"/>
<rect width="8" height="1" transform="matrix(-1 0 0 1 8 900)" fill="white" fill-opacity="0.1"/>
<rect width="8" height="1" transform="matrix(-1 0 0 1 8 909)" fill="white" fill-opacity="0.1"/>
<rect width="8" height="1" transform="matrix(-1 0 0 1 8 918)" fill="white" fill-opacity="0.1"/>
<rect width="8" height="1" transform="matrix(-1 0 0 1 8 927)" fill="white" fill-opacity="0.1"/>
<rect width="8" height="1" transform="matrix(-1 0 0 1 8 936)" fill="white" fill-opacity="0.1"/>
<rect width="8" height="1" transform="matrix(-1 0 0 1 8 945)" fill="white" fill-opacity="0.1"/>
<rect width="8" height="1" transform="matrix(-1 0 0 1 8 954)" fill="white" fill-opacity="0.1"/>
<rect width="8" height="1" transform="matrix(-1 0 0 1 8 963)" fill="white" fill-opacity="0.1"/>
<rect width="8" height="1" transform="matrix(-1 0 0 1 8 972)" fill="white" fill-opacity="0.1"/>
<rect width="8" height="1" transform="matrix(-1 0 0 1 8 981)" fill="white" fill-opacity="0.1"/>
<rect width="8" height="1" transform="matrix(-1 0 0 1 8 990)" fill="white" fill-opacity="0.1"/>
<rect width="8" height="1" transform="matrix(-1 0 0 1 8 999)" fill="white" fill-opacity="0.1"/>
<rect width="8" height="1" transform="matrix(-1 0 0 1 8 1008)" fill="white" fill-opacity="0.1"/>
<rect width="8" height="1" transform="matrix(-1 0 0 1 8 1017)" fill="white" fill-opacity="0.1"/>
<rect width="8" height="1" transform="matrix(-1 0 0 1 8 1026)" fill="white" fill-opacity="0.1"/>
<rect width="8" height="1" transform="matrix(-1 0 0 1 8 1035)" fill="white" fill-opacity="0.1"/>
<rect width="8" height="1" transform="matrix(-1 0 0 1 8 1044)" fill="white" fill-opacity="0.1"/>
<rect width="8" height="1" transform="matrix(-1 0 0 1 8 1053)" fill="white" fill-opacity="0.1"/>
<rect width="8" height="1" transform="matrix(-1 0 0 1 8 1062)" fill="white" fill-opacity="0.1"/>
<rect width="8" height="1" transform="matrix(-1 0 0 1 8 1071)" fill="white" fill-opacity="0.1"/>
<rect width="8" height="1" transform="matrix(-1 0 0 1 8 1080)" fill="white" fill-opacity="0.1"/>
<rect width="8" height="1" transform="matrix(-1 0 0 1 8 1089)" fill="white" fill-opacity="0.1"/>
<rect width="8" height="1" transform="matrix(-1 0 0 1 8 1098)" fill="white" fill-opacity="0.1"/>
<rect width="8" height="1" transform="matrix(-1 0 0 1 8 1107)" fill="white" fill-opacity="0.1"/>
</svg>
